<svg width="680" height="620" viewBox="0 0 680 620" xmlns="http://www.w3.org/2000/svg" font-family="sans-serif">
  <defs>
    <marker id="arr" viewBox="0 0 10 10" refX="8" refY="5" markerWidth="6" markerHeight="6" orient="auto-start-reverse">
      <path d="M2 1L8 5L2 9" fill="none" stroke="#888780" stroke-width="1.5" stroke-linecap="round" stroke-linejoin="round"/>
    </marker>
    <marker id="arr-purple" viewBox="0 0 10 10" refX="8" refY="5" markerWidth="6" markerHeight="6" orient="auto-start-reverse">
      <path d="M2 1L8 5L2 9" fill="none" stroke="#7F77DD" stroke-width="1.5" stroke-linecap="round" stroke-linejoin="round"/>
    </marker>
    <marker id="arr-teal" viewBox="0 0 10 10" refX="8" refY="5" markerWidth="6" markerHeight="6" orient="auto-start-reverse">
      <path d="M2 1L8 5L2 9" fill="none" stroke="#1D9E75" stroke-width="1.5" stroke-linecap="round" stroke-linejoin="round"/>
    </marker>
    <marker id="arr-blue" viewBox="0 0 10 10" refX="8" refY="5" markerWidth="6" markerHeight="6" orient="auto-start-reverse">
      <path d="M2 1L8 5L2 9" fill="none" stroke="#185FA5" stroke-width="1.5" stroke-linecap="round" stroke-linejoin="round"/>
    </marker>
    <marker id="arr-amber" viewBox="0 0 10 10" refX="8" refY="5" markerWidth="6" markerHeight="6" orient="auto-start-reverse">
      <path d="M2 1L8 5L2 9" fill="none" stroke="#BA7517" stroke-width="1.5" stroke-linecap="round" stroke-linejoin="round"/>
    </marker>
  </defs>

  <!-- ───── Your Application ───── -->
  <rect x="30" y="20" width="620" height="168" rx="14" fill="#EEEDFE" stroke="#534AB7" stroke-width="0.5"/>
  <text x="50" y="44" font-size="13" font-weight="500" fill="#3C3489">Your Application</text>

  <!-- Framework box: x=54 y=58 w=168 h=108 -->
  <rect x="54" y="58" width="168" height="108" rx="8" fill="#CECBF6" stroke="#534AB7" stroke-width="0.5"/>
  <text x="138" y="90" font-size="13" font-weight="500" fill="#3C3489" text-anchor="middle">Framework</text>
  <text x="138" y="110" font-size="11" fill="#534AB7" text-anchor="middle">Flask / FastAPI</text>
  <text x="138" y="126" font-size="11" fill="#534AB7" text-anchor="middle">Express</text>
  <text x="138" y="148" font-size="10" fill="#534AB7" text-anchor="middle">auto-patched</text>

  <!-- Log box: x=244 y=58 w=168 h=108 -->
  <rect x="244" y="58" width="168" height="108" rx="8" fill="#CECBF6" stroke="#534AB7" stroke-width="0.5"/>
  <text x="328" y="90" font-size="13" font-weight="500" fill="#3C3489" text-anchor="middle">Logger</text>
  <text x="328" y="110" font-size="11" fill="#534AB7" text-anchor="middle">Python logging</text>
  <text x="328" y="126" font-size="11" fill="#534AB7" text-anchor="middle">console.log</text>
  <text x="328" y="148" font-size="10" fill="#534AB7" text-anchor="middle">intercepted</text>

  <!-- SDK box: x=434 y=58 w=188 h=108 -->
  <rect x="434" y="58" width="188" height="108" rx="8" fill="#CECBF6" stroke="#534AB7" stroke-width="0.5"/>
  <text x="528" y="90" font-size="13" font-weight="500" fill="#3C3489" text-anchor="middle">observr SDK</text>
  <text x="528" y="110" font-size="11" fill="#534AB7" text-anchor="middle">Python / Node / Go</text>
  <text x="528" y="130" font-size="11" fill="#534AB7" text-anchor="middle">batch &amp; send</text>

  <!-- Framework → SDK -->
  <line x1="222" y1="112" x2="432" y2="112" stroke="#7F77DD" stroke-width="1" marker-end="url(#arr-purple)"/>
  <!-- Logger → SDK -->
  <line x1="412" y1="112" x2="432" y2="112" stroke="#7F77DD" stroke-width="1" marker-end="url(#arr-purple)"/>

  <!-- SDK → observrd (down) -->
  <line x1="528" y1="168" x2="528" y2="218" stroke="#7F77DD" stroke-width="1.5" stroke-dasharray="4 3" marker-end="url(#arr-purple)"/>
  <text x="534" y="198" font-size="10" fill="#534AB7">HTTP POST /events</text>

  <!-- ───── observrd binary ───── -->
  <rect x="30" y="220" width="620" height="236" rx="14" fill="#E1F5EE" stroke="#0F6E56" stroke-width="0.5"/>
  <text x="50" y="244" font-size="13" font-weight="500" fill="#085041">observrd binary (Go)</text>

  <!-- Intake: x=54 y=260 w=148 h=80 -->
  <rect x="54" y="260" width="148" height="80" rx="8" fill="#9FE1CB" stroke="#0F6E56" stroke-width="0.5"/>
  <text x="128" y="292" font-size="13" font-weight="500" fill="#085041" text-anchor="middle">Collector</text>
  <text x="128" y="312" font-size="11" fill="#0F6E56" text-anchor="middle">POST /events</text>

  <!-- SQLite: x=228 y=260 w=148 h=80 -->
  <rect x="228" y="260" width="148" height="80" rx="8" fill="#9FE1CB" stroke="#0F6E56" stroke-width="0.5"/>
  <text x="302" y="292" font-size="13" font-weight="500" fill="#085041" text-anchor="middle">SQLite</text>
  <text x="302" y="312" font-size="11" fill="#0F6E56" text-anchor="middle">WAL mode</text>

  <!-- Query API: x=402 y=260 w=108 h=80 -->
  <rect x="402" y="260" width="108" height="80" rx="8" fill="#9FE1CB" stroke="#0F6E56" stroke-width="0.5"/>
  <text x="456" y="292" font-size="13" font-weight="500" fill="#085041" text-anchor="middle">Query API</text>
  <text x="456" y="312" font-size="11" fill="#0F6E56" text-anchor="middle">GET /query</text>

  <!-- WebSocket: x=526 y=260 w=100 h=80 -->
  <rect x="526" y="260" width="100" height="80" rx="8" fill="#9FE1CB" stroke="#0F6E56" stroke-width="0.5"/>
  <text x="576" y="292" font-size="13" font-weight="500" fill="#085041" text-anchor="middle">WebSocket</text>
  <text x="576" y="312" font-size="11" fill="#0F6E56" text-anchor="middle">/ws</text>

  <!-- Intake → SQLite -->
  <line x1="202" y1="300" x2="226" y2="300" stroke="#1D9E75" stroke-width="1.5" marker-end="url(#arr-teal)"/>

  <!-- SQLite → Query API -->
  <line x1="376" y1="290" x2="400" y2="290" stroke="#1D9E75" stroke-width="1.5" marker-end="url(#arr-teal)"/>

  <!-- SQLite → WebSocket -->
  <line x1="376" y1="312" x2="400" y2="312" stroke="#1D9E75" stroke-width="1" stroke-dasharray="3 2"/>
  <path d="M400 312 L524 312" fill="none" stroke="#1D9E75" stroke-width="1" stroke-dasharray="3 2" marker-end="url(#arr-teal)"/>

  <!-- Static Dashboard bar -->
  <rect x="54" y="360" width="572" height="80" rx="8" fill="#9FE1CB" stroke="#0F6E56" stroke-width="0.5"/>
  <text x="340" y="392" font-size="13" font-weight="500" fill="#085041" text-anchor="middle">Static Dashboard</text>
  <text x="340" y="412" font-size="11" fill="#0F6E56" text-anchor="middle">React UI · embed.FS · served on /</text>
  <text x="340" y="430" font-size="10" fill="#0F6E56" text-anchor="middle">single binary, no external files</text>

  <!-- ───── Consumers ───── -->
  <rect x="30" y="480" width="620" height="120" rx="14" fill="#FAEEDA" stroke="#854F0B" stroke-width="0.5"/>
  <text x="50" y="504" font-size="13" font-weight="500" fill="#633806">Consumers</text>

  <!-- Browser box: x=54 y=518 w=172 h=68 -->
  <rect x="54" y="518" width="172" height="68" rx="8" fill="#FAC775" stroke="#854F0B" stroke-width="0.5"/>
  <text x="140" y="548" font-size="13" font-weight="500" fill="#633806" text-anchor="middle">Browser Dashboard</text>
  <text x="140" y="568" font-size="11" fill="#854F0B" text-anchor="middle">real-time · auto open</text>

  <!-- CLI box: x=254 y=518 w=172 h=68 -->
  <rect x="254" y="518" width="172" height="68" rx="8" fill="#FAC775" stroke="#854F0B" stroke-width="0.5"/>
  <text x="340" y="548" font-size="13" font-weight="500" fill="#633806" text-anchor="middle">observr CLI</text>
  <text x="340" y="568" font-size="11" fill="#854F0B" text-anchor="middle">--format json</text>

  <!-- AI Agent box: x=454 y=518 w=172 h=68 -->
  <rect x="454" y="518" width="172" height="68" rx="8" fill="#FAC775" stroke="#854F0B" stroke-width="0.5"/>
  <text x="540" y="548" font-size="13" font-weight="500" fill="#633806" text-anchor="middle">AI Agent</text>
  <text x="540" y="568" font-size="11" fill="#854F0B" text-anchor="middle">Claude · Cursor · JSON</text>

  <!-- WebSocket → Browser (down) -->
  <path d="M576 342 L576 460 L140 460 L140 516" fill="none" stroke="#185FA5" stroke-width="1.5" stroke-dasharray="4 3" marker-end="url(#arr-blue)"/>

  <!-- Static → Browser (down) -->
  <line x1="170" y1="442" x2="140" y2="516" stroke="#1D9E75" stroke-width="1" marker-end="url(#arr-teal)"/>

  <!-- Query API → CLI (down) -->
  <path d="M456 342 L456 470 L340 470 L340 516" fill="none" stroke="#888780" stroke-width="1.5" marker-end="url(#arr)"/>

  <!-- Query API → AI Agent (down) -->
  <path d="M510 342 L510 480 L540 480 L540 516" fill="none" stroke="#BA7517" stroke-width="1.5" stroke-dasharray="4 3" marker-end="url(#arr-amber)"/>

</svg>
